<svg xmlns="http://www.w3.org/2000/svg" xmlns:xlink="http://www.w3.org/1999/xlink" version="1.1" x="0px" y="0px" viewBox="0 0 100 125" style="enable-background:new 0 0 100 100;" xml:space="preserve"><style type="text/css">
	.st0{fill:none;stroke:#000000;stroke-width:2;stroke-linecap:round;stroke-linejoin:round;stroke-miterlimit:10;}
</style><path d="M81.257,53.297h1.015c0.553,0,1-0.447,1-1s-0.447-1-1-1H13.118c-0.332,0-0.643,0.165-0.828,0.439  c-0.208,0.308-5.044,7.646-0.06,17.276c0.171,0.332,0.514,0.54,0.888,0.54h69.154c0.553,0,1-0.447,1-1s-0.447-1-1-1h-0.956  C79.298,60.437,80.758,54.846,81.257,53.297z M13.736,67.553c-3.423-7.122-0.924-12.683-0.053-14.256h65.479  c-0.648,2.264-1.684,7.565,0.083,14.256H13.736z"/><path d="M87.984,73.991h1.015c0.553,0,1-0.447,1-1s-0.447-1-1-1H19.845c-0.332,0-0.643,0.165-0.828,0.439  c-0.208,0.308-5.042,7.646-0.06,17.275c0.171,0.332,0.514,0.54,0.888,0.54h69.154c0.553,0,1-0.447,1-1s-0.447-1-1-1h-0.955  C86.026,81.131,87.485,75.541,87.984,73.991z M20.463,88.246c-3.422-7.121-0.924-12.682-0.053-14.255h65.48  c-0.648,2.264-1.684,7.565,0.083,14.255H20.463z"/><path d="M81.256,11.931h1.016c0.553,0,1-0.447,1-1s-0.447-1-1-1H13.116c-0.332,0-0.643,0.165-0.828,0.439  c-0.208,0.308-5.042,7.646-0.06,17.275c0.171,0.332,0.514,0.54,0.888,0.54h13.716v2.122h-6.987c-0.332,0-0.643,0.165-0.828,0.439  c-0.208,0.308-5.042,7.646-0.06,17.276c0.171,0.332,0.514,0.54,0.888,0.54h69.154c0.553,0,1-0.447,1-1s-0.447-1-1-1h-0.955  c-2.019-7.115-0.56-12.706-0.06-14.256h1.015c0.553,0,1-0.447,1-1s-0.447-1-1-1H42.332v-2.122h39.939c0.553,0,1-0.447,1-1  s-0.447-1-1-1h-0.956C79.297,19.071,80.756,13.481,81.256,11.931z M28.832,11.931h11.5v27.577l-5.24-3.105  c-0.314-0.186-0.705-0.186-1.02,0l-5.24,3.105V11.931z M13.734,26.186c-3.422-7.121-0.924-12.682-0.053-14.255h13.15v14.255H13.734z   M85.89,32.308c-0.648,2.264-1.684,7.565,0.083,14.256H20.463c-3.422-7.122-0.923-12.683-0.053-14.256h6.422v8.955  c0,0.359,0.192,0.691,0.505,0.869s0.695,0.174,1.005-0.009l6.24-3.698l6.24,3.698c0.157,0.093,0.333,0.14,0.51,0.14  c0.171,0,0.342-0.044,0.495-0.131c0.312-0.178,0.505-0.51,0.505-0.869v-8.955H85.89z M42.332,26.186V11.931h36.83  c-0.648,2.264-1.684,7.565,0.083,14.255H42.332z"/><text x="0" y="115" fill="#000000" font-size="5px" font-weight="bold" font-family="'Helvetica Neue', Helvetica, Arial-Unicode, Arial, Sans-serif">Created by Made by Made</text><text x="0" y="120" fill="#000000" font-size="5px" font-weight="bold" font-family="'Helvetica Neue', Helvetica, Arial-Unicode, Arial, Sans-serif">from the Noun Project</text></svg>